<?xml version="1.0"?>
<svg width="216" height="250" xmlns="http://www.w3.org/2000/svg" xmlns:svg="http://www.w3.org/2000/svg">
 <g class="layer">
  <title>Layer 1</title>
  <path d="m169.38,77.95q-5.94,5.37 -23.47,22.34q7.07,-3.39 28.85,-13.58q1.98,4.24 3.96,8.2t3.11,8.77q-10.18,4.81 -30.55,13.58q8.2,-1.13 33.37,-3.68q0,3.68 0.57,6.51q0.28,2.83 0.28,5.37q0,2.83 -0.28,5.09q-0.57,2.26 -0.57,4.81q-10.46,-0.57 -31.68,-1.13q7.35,2.83 29.98,11.03q-1.41,4.81 -3.39,9.9q-2.26,5.09 -4.81,9.9q-9.33,-4.53 -28.85,-13.58q5.94,5.37 23.47,20.65q-3.96,4.53 -7.07,7.64q-3.39,3.11 -7.35,5.94q-7.35,-7.64 -21.78,-22.63q3.68,7.35 13.58,29.13q-4.24,1.98 -8.2,3.68q-4.24,1.98 -8.77,3.39q-4.81,-10.18 -13.58,-30.55q0.57,8.2 2.83,33.37q-2.83,0 -5.37,0.28q-2.83,0.28 -5.66,0.28t-5.37,-0.28t-5.37,-0.28q1.41,-11.31 3.68,-33.37l-13.58,30.55q-5.09,-1.41 -9.33,-2.83q-4.24,-1.7 -8.77,-4.24q5.09,-9.9 14.71,-29.13q-5.66,5.94 -22.63,23.47q-4.24,-3.68 -7.64,-6.79t-5.94,-6.79q7.35,-6.79 22.63,-21.49q-7.07,3.68 -28.85,13.58q-3.11,-5.09 -4.81,-9.62q-1.98,-5.09 -3.39,-10.18q10.18,-3.96 30.55,-11.03q-7.92,0.28 -32.24,1.13q-0.85,-2.83 -1.13,-4.81l0,-5.09q0,-2.83 0.57,-5.94t0.57,-5.94q11.03,1.41 33.37,3.68q-7.64,-3.39 -30.83,-13.58q1.13,-2.83 1.98,-5.66q1.13,-2.83 2.26,-6.22q1.41,-3.39 3.11,-6.22q9.62,5.09 29.7,14.71q-5.94,-5.37 -24.32,-22.34q3.68,-3.68 6.79,-7.35q3.39,-3.68 7.64,-6.22q7.07,7.64 20.65,23.19q-3.11,-7.35 -12.73,-28.85q4.53,-3.11 9.62,-4.53q5.09,-1.98 10.18,-3.68l10.18,29.7l0,-31.39q1.98,-0.57 3.96,-0.85l9.9,0q1.98,0.28 4.81,0.85l-0.85,31.39q2.55,-7.35 10.75,-29.7q4.81,1.7 9.9,3.68q5.09,1.7 9.9,4.53q-4.81,9.33 -13.29,28.85q5.37,-5.66 21.49,-23.19l13.58,13.58zm30.55,-5.66l0,105.21q-22.91,13.58 -91.92,54.02q-22.91,-13.58 -91.64,-54.02l0,-105.21q22.91,-13.58 91.64,-54.02q22.91,13.58 91.92,54.02zm-91.92,135.19q16.69,0 31.96,-6.79q14.99,-6.22 25.74,-17.25q11.31,-11.31 17.54,-26.3q6.79,-15.27 6.79,-31.68q0,-16.97 -6.79,-31.96q-6.22,-15.27 -17.54,-25.74q-10.75,-11.31 -25.74,-18.1q-15.27,-6.22 -31.96,-6.22t-31.68,6.22q-15.27,6.51 -26.02,18.1q-11.03,10.75 -17.54,25.74t-6.51,31.96q0,16.4 6.51,31.68q6.22,14.99 17.54,26.3q11.03,11.03 26.02,17.25q14.99,6.79 31.68,6.79zm107.19,-144.24l0,123.31q-26.87,15.56 -107.19,61.94q-26.59,-15.56 -106.91,-62.79l0,-71.56l0,-50.91q26.59,-15.56 106.91,-61.94q26.87,15.56 107.19,61.94zm-8.2,4.53q-24.61,-14.42 -98.99,-57.7q-25.17,14.42 -99.84,57.7l0,113.41q25.17,14.71 99.84,58.55q24.61,-14.42 98.99,-57.7l0,-114.26z" id="svg_1"/>
 </g>
</svg>