<?xml version="1.0"?>
<svg width="250" height="250" xmlns="http://www.w3.org/2000/svg" xmlns:svg="http://www.w3.org/2000/svg" version="1.1" xml:space="preserve">
 <title>Empire</title>
 <desc>Created with Fabric.js 5.2.4</desc>

 <g class="layer">
  <title>Layer 1</title>
  <g id="a8f9dfdc-041f-4e78-bbe3-1f1029012a8e" transform="matrix(1 0 0 1 540 540)"/>
  <g id="svg_2" transform="matrix(0.281739 0 0 0.281739 213.435 213.435)">
   <path d="m186.11,85.11q-87,0 -166.5,34q-79.5,34 -136.5,91q-57,57 -91,136.5q-34,79.5 -34,166.5q0,87 34,166q34,79 91,136.5q57,57.5 136.5,91.5q79.5,34 166.5,34q87,0 166.5,-34q79.5,-34 136.5,-91.5q57,-57.5 91,-136.5q34,-79 34,-166q0,-69 -22,-134.5q-22,-65.5 -61.5,-118q-39.5,-52.5 -92,-92q-52.5,-39.5 -118,-61.5q-65.5,-22 -134.5,-22zm-155.5,60q74.5,-32 155.5,-32q81,0 155.5,32q74.5,32 127.5,85q53,53 85,127.5q32,74.5 32,155.5q0,65 -20.5,126q-20.5,61 -57.5,110q-37,49 -86,86q-49,37 -110,57.5q-61,20.5 -126,20.5q-81,0 -155.5,-32q-74.5,-32 -127.5,-85q-53,-53 -85,-127.5q-32,-74.5 -32,-155.5q0,-81 32,-155.5q32,-74.5 85,-127.5q53,-53 127.5,-85zm202.5,10q96,12 173,71l-30,30q-64,-47 -143,-59l0,-42zm-95,0l0,42q-78,12 -142,60l-30,-30q77,-60 172,-72zm22,85l52,0l0,143q26,4 48,18l100,-100l38,38l-101,100q15,22 19,48l143,0l0,52l-143,0q-4,25 -19,48l101,100l-38,38l-100,-101q-23,15 -48,19l0,143l-52,0l0,-143q-26,-5 -48,-19l-100,101l-38,-38l101,-100q-15,-23 -19,-48l-143,0l0,-52l143,0q4,-26 19,-48l-101,-100l38,-38l100,100q22,-14 48,-18l0,-143zm312,53q60,77 72,172l-42,0q-12,-78 -60,-142l30,-30zm-573,0l30,30q-47,64 -59,142l-42,0q12,-95 71,-172zm-71,267l42,0q12,79 59,143l-30,30q-59,-77 -71,-173zm674,0l42,0q-12,96 -72,173l-30,-30q48,-64 60,-143zm-506,209q64,48 142,60l0,42q-95,-12 -172,-72l30,-30zm380,1l30,30q-77,59 -173,71l0,-42q79,-12 143,-59z" fill="rgb(0,0,0)" fill-rule="nonzero" id="svg_3" stroke-dashoffset="0" stroke-miterlimit="4" transform="translate(-500 -827)"/>
  </g>
 </g>
</svg>