<?xml version="1.0"?>
<svg width="250" height="250" xmlns="http://www.w3.org/2000/svg" xmlns:svg="http://www.w3.org/2000/svg">
 <g class="layer">
  <title>Layer 1</title>
  <path d="m222.11,174.49q2.59,-5.18 4.89,-10.36q2.01,-5.47 3.16,-12.08q2.3,-6.62 3.02,-13.67t0.72,-13.67q0,-7.19 -0.72,-14.53t-3.02,-13.95q-1.15,-6.04 -3.16,-11.22q-2.3,-5.47 -4.89,-10.93q-1.73,0.86 -4.89,2.88q2.59,4.89 4.89,10.07q2.01,5.18 3.74,10.36l-12.95,3.45q3.45,11.51 3.16,23.88q0,12.08 -3.16,23.02q4.32,1.15 12.95,3.74q-3.74,10.93 -8.63,20.43q1.73,0.58 4.89,2.59zm-20.14,26.76q4.6,-4.03 7.77,-8.34q4.03,-5.18 6.91,-9.78q-1.73,-0.86 -4.32,-2.59q-2.88,4.89 -6.04,9.49q-3.74,4.32 -7.77,7.77q-3.16,-3.16 -8.92,-9.21q-8.34,8.34 -18.7,14.39q-10.65,5.75 -22.15,9.49q0.86,4.03 3.16,12.08q-10.93,3.16 -22.73,4.03l0,4.6q5.75,0 12.08,-1.15q5.75,-0.86 12.08,-2.59q14.39,-3.45 26.76,-10.65q12.08,-7.77 21.87,-17.55zm-83.15,26.76q-10.65,0 -20.43,-3.45q0.86,-4.03 2.88,-12.08q-23.59,-6.62 -40.86,-23.88q-2.88,3.16 -8.92,9.21q-8.06,-7.19 -13.81,-17.26q-1.44,0.86 -4.03,2.59q2.88,4.89 6.62,9.78q3.74,4.6 7.77,8.34q9.78,9.78 22.15,17.55q12.37,7.19 26.47,10.65q5.75,1.73 11.22,2.59l10.93,1.15l0,-5.18zm-86.03,-56.11q-5.18,-9.49 -8.63,-20.43q4.32,-1.44 13.24,-3.74q-3.45,-10.93 -3.45,-23.02q0,-12.95 3.45,-23.88q-4.32,-1.15 -13.24,-3.45q1.73,-5.47 3.74,-10.36q2.3,-5.18 4.89,-10.07q-1.73,-0.86 -4.6,-2.88q-2.88,5.47 -5.18,10.93q-2.3,5.18 -3.16,11.22q-3.74,13.81 -3.74,28.48q0,6.62 0.86,13.81q0.58,6.62 2.88,13.52q2.88,12.37 8.34,22.44q1.44,-0.86 4.6,-2.59zm15.25,-124.29q-4.32,3.74 -7.77,8.34q-3.74,4.6 -6.62,9.49q1.44,0.86 4.03,2.59q2.88,-4.6 6.04,-9.21q3.74,-4.32 7.77,-7.77q3.16,2.88 8.92,8.92q8.63,-8.06 18.99,-14.39t21.87,-9.49q-0.86,-4.03 -2.88,-12.37q4.6,-1.44 9.78,-2.3q5.47,-0.86 10.65,-1.15l0,-4.6q-5.47,0.29 -10.93,1.15q-5.47,0.58 -11.22,2.59q-14.1,3.16 -26.47,10.65t-22.15,17.55zm114.22,77.11q0,-2.59 -0.58,-5.18q-0.58,-2.3 -0.58,-4.6q12.66,-3.45 37.4,-10.07q-2.59,-10.07 -7.48,-18.7q-5.18,-8.92 -12.08,-15.54q-8.92,9.21 -27.62,27.62q-3.74,-3.74 -7.77,-6.04q-4.6,-2.3 -9.49,-3.74q3.74,-12.37 10.36,-37.4q-4.89,-1.15 -9.49,-1.73q-4.89,-0.86 -9.49,-0.86q-5.18,0 -10.07,0.86q-5.18,0.86 -9.78,1.73q3.45,12.37 10.36,37.4q-5.18,1.44 -9.21,3.74q-4.32,2.59 -8.06,6.04l-27.62,-27.62q-6.91,6.62 -11.8,15.54q-4.89,8.63 -7.48,18.7q12.95,3.16 38.27,10.07q-2.01,4.6 -2.01,9.78q0,2.3 0.29,4.32q0.58,2.59 1.73,4.6q-12.95,3.74 -38.27,10.36q2.88,9.78 7.48,18.13q4.89,8.63 11.8,16.11q9.21,-8.92 27.62,-27.91q3.74,3.16 8.06,5.75q4.32,2.88 9.21,3.45q-3.45,12.66 -10.36,38.27q4.89,1.15 9.78,2.01q5.18,0.58 10.07,0.58t9.49,-0.58q4.89,-0.86 9.49,-2.01q-3.45,-12.66 -10.36,-38.27q5.18,-0.86 9.49,-3.16t7.77,-6.04q8.92,9.21 27.62,27.91q6.91,-6.91 12.08,-15.82q5.18,-8.34 7.48,-18.41q-12.66,-3.16 -37.4,-10.36q0.29,-2.01 0.58,-4.6q0.58,-2.01 0.58,-4.32zm-33.09,-104.44q5.75,0.29 11.51,1.15q5.47,0.86 11.22,2.3q-1.44,4.03 -3.16,12.37q11.51,3.16 22.15,9.49q10.36,6.04 18.7,14.39q3.16,-3.16 8.92,-9.21q4.32,3.74 7.77,8.06q3.16,4.6 6.04,9.21q1.73,-0.86 4.32,-2.59q-3.16,-5.18 -6.91,-9.49q-3.45,-4.89 -7.77,-8.34q-9.78,-10.07 -21.87,-17.55q-12.37,-7.77 -26.76,-11.51q-6.04,-1.73 -12.08,-2.01q-6.04,-0.86 -12.08,-0.86l0,4.6zm114.51,72.22q2.01,7.48 3.16,15.54t1.15,16.69q0,8.34 -1.15,16.4t-3.16,15.54q-4.32,15.54 -12.37,29.35t-19.56,25.32q-10.93,11.51 -25.32,19.56q-13.81,7.77 -29.64,12.08q-7.48,2.3 -15.54,3.16q-7.77,1.15 -15.82,1.15q-8.63,0 -16.69,-1.15q-7.77,-1.15 -15.25,-3.16q-16.11,-4.32 -29.92,-12.08q-14.39,-8.06 -25.32,-19.56q-11.22,-11.51 -19.28,-25.32t-12.66,-29.35q-2.01,-7.48 -3.16,-15.54t-1.15,-16.4q0,-8.34 1.15,-16.69q1.15,-8.06 3.16,-15.54q4.6,-15.82 12.66,-29.92t19.28,-25.03q10.93,-11.51 25.32,-19.56q14.1,-7.77 29.92,-12.08q14.67,-4.32 31.94,-4.32q8.06,0 15.82,1.15t15.54,3.16q16.11,4.6 29.64,12.08q14.39,7.77 25.32,19.56q11.51,11.22 19.56,25.03q8.06,14.1 12.37,29.92z" id="svg_4"/>
 </g>
</svg>