<?xml version="1.0"?>
<svg width="242.99999999999997" height="250" xmlns="http://www.w3.org/2000/svg" xmlns:svg="http://www.w3.org/2000/svg">
 <g class="layer">
  <title>Layer 1</title>
  <path d="m110.21,57.72q-0.84,-16.22 -10.62,-30.2q7.27,-8.67 22.09,-25.44q5.59,6.43 22.65,25.44q-10.07,14.26 -11.18,30.2q9.79,-14.26 21.81,-19.01q4.75,5.03 13.98,15.94q-10.35,4.47 -15.52,10.35t-7.13,9.23q-7.55,15.66 -8.11,26q-0.28,4.19 -0.28,6.71l0,5.87q0,2.24 1.4,9.51q1.68,7.27 6.43,14.82q8.67,10.07 19.85,10.07q5.03,0 10.07,-1.96q7.83,-2.52 15.1,-9.23q20.13,-20.69 20.13,-47.25l0,-3.08q-1.12,-13.7 -5.03,-23.77q-7.83,-20.69 -15.1,-29.36q-6.71,-8.95 -7.27,-9.51q-0.84,-0.84 0,-0.28q0.56,0.28 0.56,-0.28q27.68,18.17 43.06,45.29q15.38,26.84 15.1,55.08l0,14.26q0,12.86 -8.39,35.23q-8.39,21.25 -25.16,39.14q-15.94,17.34 -38.58,27.4q-22.37,10.35 -48.37,10.35q-25.72,0 -48.09,-10.07q-45.29,-20.69 -64.03,-67.94q-8.39,-21.53 -8.39,-44.46l0,-3.91q1.12,-29.92 15.8,-56.06t41.8,-44.32q0.84,0.56 1.12,0.28t-0.28,0.56q-0.56,0.28 -4.75,5.31q-10.07,13.7 -15.94,29.92q-5.87,15.94 -6.15,27.12l0,8.67q0,5.31 4.47,17.61q4.75,12.58 15.66,24.05q10.07,9.23 21.81,11.18l3.08,0q11.18,0 19.57,-10.07q8.39,-12.86 8.39,-29.92q0,-3.36 -0.28,-6.99q-0.56,-10.9 -8.11,-26q-3.36,-6.43 -9.51,-11.74q-6.43,-5.31 -12.86,-7.83q4.75,-5.31 13.98,-15.94q12.02,5.03 21.25,19.01z" id="svg_1"/>
 </g>
</svg>