<?xml version="1.0"?>
<svg width="240.00000000000003" height="250.00000000000003" xmlns="http://www.w3.org/2000/svg" xmlns:svg="http://www.w3.org/2000/svg">
 <g class="layer">
  <title>Layer 1</title>
  <path d="m119.83,247.4q-12.68,0 -24.32,-2.33q-11.9,-2.59 -23.28,-7.5q-44.24,-20.44 -63.12,-67q-8.28,-21.21 -8.28,-43.98l0,-3.62q0.52,-14.75 4.4,-28.72t11.12,-26.65q14.23,-25.61 41.39,-43.72q0.52,-0.52 2.07,-1.29q0.52,0.52 1.81,1.29q0.52,0.78 1.03,0.52q0.26,0 0.26,0.26q0.78,0.52 2.85,2.33q-0.78,0.78 -2.59,3.1q-0.52,0.52 -1.03,1.55q-0.52,0.78 -1.29,1.55q-0.78,1.29 -1.81,2.07q-9.57,12.68 -15,27.42t-5.43,24.83l0,8.28q0,1.81 0.78,5.43q0.52,3.62 3.1,10.35q3.88,10.87 14.23,21.21q8.8,8.28 18.63,9.57l1.55,0q0.52,0.26 1.03,0.26q8.8,-0.52 15.52,-8.02q7.24,-11.38 7.5,-26.65l0,-3.1q-0.26,-1.55 -0.26,-3.1q-0.52,-10.09 -7.76,-23.54q-2.85,-5.95 -8.02,-10.09q-5.95,-4.66 -11.38,-6.98q-1.55,-0.52 -4.66,-1.81q4.92,-5.17 18.63,-21.47q0.78,0.26 2.59,1.29q6.21,2.85 12.42,8.02q-2.59,-6.98 -6.98,-13.19q-0.52,-1.03 -1.55,-2.33q6.21,-7.24 25.87,-29.75q6.47,7.5 26.39,29.75q-0.52,0.78 -1.81,2.33q-4.66,5.69 -6.98,12.93q6.47,-5.17 12.68,-8.02q1.03,-0.26 2.59,-1.03q4.66,5.17 18.63,21.47q-1.29,0.52 -4.92,1.81q-8.54,4.14 -13.45,8.8q-3.36,3.62 -4.4,5.17q-1.55,2.07 -1.81,3.1q-6.98,14.75 -7.5,23.54q-0.26,2.07 -0.26,3.1l0,8.54q0,0.52 0.26,2.07q0.26,1.81 1.03,6.21q1.81,6.47 5.69,12.93q7.5,8.02 15.78,8.02l4.14,-0.52q2.07,-0.26 4.4,-1.29q6.47,-2.33 13.19,-8.02q18.11,-18.63 18.11,-42.43l0,-2.85q-0.78,-5.95 -1.94,-11.38t-2.72,-10.09q-7.24,-19.4 -13.71,-27.16q-1.81,-1.81 -3.36,-3.88q-1.29,-1.81 -2.07,-2.59q-1.03,-1.55 -1.81,-2.33q-1.29,-1.55 -3.36,-4.14q2.07,-0.78 7.24,-3.1q0.26,0.52 1.55,1.03q26.9,17.85 42.17,44.5q15.26,26.9 15.26,54.58l0,13.45q0,13.45 -8.54,35.18q-8.02,20.95 -24.83,38.55q-15.26,16.82 -38.03,27.42q-21.47,9.83 -47.6,9.83zm-75.28,-203.85q-13.19,12.42 -21.47,27.68q-13.71,24.32 -14.75,52l0,3.36q0,21.99 8.02,41.13q17.33,44.24 58.98,62.86q20.18,9.31 44.5,9.31q12.16,0 23.02,-2.33q11.12,-2.33 21.73,-6.98q20.44,-9.31 35.44,-25.61q15.52,-16.3 23.28,-36.22q4.14,-10.35 5.95,-18.37q2.07,-8.02 2.07,-13.97l0,-13.45q0,-25.61 -14.23,-50.7q-8.8,-15.78 -21.73,-27.94q2.07,3.88 4.14,8.8t4.4,10.35q1.81,4.92 3.36,11.12q1.03,5.43 1.81,12.42l0,3.36q0,26.65 -20.44,47.6q-7.24,6.98 -16.04,10.09q-5.43,1.81 -10.61,2.07q-12.68,0 -21.99,-10.87l-0.26,-0.52q-4.92,-7.24 -6.73,-15.26q-1.03,-4.92 -1.29,-6.98q-0.26,-2.33 -0.26,-3.1l0,-5.95l0,-2.59q0,-1.81 0.26,-3.88q0.78,-10.09 8.28,-26.13q2.07,-4.4 7.24,-9.57q4.14,-4.92 11.64,-8.8q-2.85,-3.1 -8.28,-9.57q-9.05,4.66 -16.56,16.04q-2.59,3.88 -7.76,11.38q0.26,-3.62 0.78,-13.71q1.03,-14.75 9.83,-28.46q-5.69,-6.21 -17.07,-18.88q-4.14,4.92 -16.56,18.88q4.14,6.73 6.47,13.71q2.59,6.73 2.85,14.75q0.26,4.66 1.03,13.71q-2.07,-3.1 -7.76,-11.38q-7.5,-11.12 -16.56,-16.04q-2.85,3.36 -8.28,9.57q2.59,1.29 4.4,2.85q2.07,1.29 4.14,3.36q6.73,5.17 10.35,12.16q6.98,14.75 8.28,26.13q0,2.07 0.26,3.62l0,3.36q0,17.85 -8.8,30.78q0,0.26 -0.26,0.52q-9.05,10.35 -21.47,10.87l-1.81,0q-0.78,-0.26 -1.81,-0.52q-12.68,-1.81 -22.77,-11.38q-11.64,-11.38 -16.04,-24.32q-4.66,-11.9 -4.4,-18.11l0,-8.28q0,-5.95 1.68,-12.68t4.27,-14.75q2.59,-8.28 7.5,-16.56z" id="svg_1"/>
 </g>
</svg>