<?xml version="1.0"?>
<svg width="250" height="250" xmlns="http://www.w3.org/2000/svg" xmlns:svg="http://www.w3.org/2000/svg">
 <g class="layer">
  <title>Layer 1</title>
  <path d="m204.33,117.88q2.16,7.02 2.97,12.69q1.62,5.94 1.35,11.88l0,1.89q0,6.21 -2.97,13.5q-2.43,5.94 -8.1,9.72q-5.4,2.97 -10.81,3.78q-5.13,0.81 -10.81,0.81q-1.89,0 -5.13,-1.08q-2.7,-1.08 -4.86,-2.16q-2.43,-1.35 -2.43,-2.97q0,-1.08 4.32,-1.62q2.43,-0.27 4.32,-0.27q2.16,0 4.86,-1.35q3.78,-1.08 7.02,-4.59q1.89,-1.62 3.24,-4.32q1.35,-2.97 1.62,-5.67q0.81,-3.24 0.81,-6.21q0,-3.24 -0.81,-5.67q-0.81,-2.7 -2.43,-5.4q-1.62,-2.97 -3.24,-5.4q-2.7,-5.13 -5.13,-8.37l-5.67,-7.56l-5.13,-5.13q-2.43,-2.7 -4.86,-5.13q-1.35,-0.54 -2.16,-2.16q-0.81,-1.08 -2.16,-1.62t-1.35,-1.62q-0.54,-1.62 -2.16,-1.89q-0.27,-0.27 -0.27,-1.08q0,-1.08 0.81,-2.97q0.81,-2.7 1.62,-5.67q1.35,-2.7 2.16,-5.13q1.35,-2.43 1.89,-3.78q0.54,-0.81 1.62,-2.16q1.08,-1.62 2.16,-3.51q1.35,-1.62 2.7,-2.7q0.81,-1.08 1.22,-1.08t0.68,0.27q1.35,0.27 4.59,3.24t4.05,4.59q2.7,2.16 4.59,5.13q2.16,2.97 3.78,5.67q1.89,2.97 4.05,4.86q2.43,2.43 3.78,5.13q3.24,5.94 5.94,12.42q2.7,7.56 4.32,12.69l0.01,0zm-116.44,-28.08q1.35,1.08 3.51,2.97q2.43,2.16 3.51,3.24q0.27,0.81 0.27,1.35q0,2.16 -1.89,3.78q-2.16,1.62 -3.78,3.24q-2.43,2.16 -4.59,4.18t-5.4,4.18q-3.51,2.16 -4.59,4.32q-1.35,2.43 -3.78,5.94q-3.78,4.32 -7.29,7.83q-2.97,3.78 -5.4,9.72q-1.89,4.86 -1.89,9.72l0,2.7q1.62,7.83 4.05,12.15q3.24,5.67 8.92,7.02q3.24,0.27 6.48,0.27l4.86,0l4.86,-0.54q2.7,-0.54 2.43,3.51q-0.27,4.32 -3.51,5.94q-3.51,1.08 -6.75,1.89q-3.78,0.81 -7.56,0.81q-4.86,-0.27 -8.37,-1.08q-3.78,-0.81 -6.48,-3.24t-5.4,-5.4q-4.59,-4.59 -7.02,-9.72q-2.97,-5.4 -4.05,-12.15q-0.81,-5.94 -0.81,-8.1l0,-1.48l0,-0.94q0,-2.16 0.81,-5.13q0.54,-1.62 2.16,-6.75q0.81,-3.51 2.43,-7.02q2.43,-9.72 6.48,-18.63q4.32,-8.91 11.08,-15.93q0.81,-1.35 5.13,-4.59q4.05,-3.51 7.29,-3.78q1.08,-0.54 2.16,-0.54q0.81,0 1.35,0.54l3.24,2.7q1.89,2.7 3.51,4.05q1.35,1.62 4.05,2.97l-0.02,0zm24.58,78.84q0.54,1.35 0.54,4.59l0,1.35q-0.27,4.05 -0.27,6.21l0,9.99q0.27,1.08 -0.27,6.21q-0.54,10.8 -1.08,16.2q-2.7,-2.16 -2.7,-5.4q0,-3.51 -0.54,-6.21q-0.54,-3.78 -1.08,-7.15t-1.08,-6.88q-0.27,-0.54 -0.81,-5.4q-1.08,-4.86 -1.62,-9.72q-0.27,-2.43 -0.27,-3.24q0.27,-2.97 0.54,-4.86q0.54,-2.7 2.16,-2.7q0.54,0 1.08,0.27q-0.54,0.27 -1.08,0.27q1.62,1.62 3.51,3.24q1.89,1.89 2.97,3.24l0,-0.01zm33.23,12.69q0.27,2.43 0.27,4.86q0,3.78 -0.81,8.1q-1.08,7.56 -1.08,13.5q0,2.97 0.27,5.67q0.54,3.24 0.54,6.21q0,0.81 -0.54,2.7q-0.27,1.89 -1.08,3.78q-0.81,2.16 -1.89,3.51q-0.54,0.54 -1.08,0.54q-0.81,0 -1.08,-1.08q-1.62,-0.54 -0.81,-2.97q0.81,-2.7 0.81,-3.78q0,-1.89 0.27,-4.05t-0.27,-4.59q0,-3.24 -1.08,-7.02q-1.35,-3.51 -1.08,-7.29q-0.27,-3.78 -0.27,-7.56l0,-1.89l0,-0.81q0,-4.05 -1.08,-8.37q-1.35,-3.51 -1.62,-7.29q-0.27,-0.54 -0.27,-1.08q0,-2.97 3.24,-5.13l-0.27,0q1.35,-1.89 2.97,-2.43l0.81,0q1.35,0 1.89,1.62q0.54,0.81 0.54,3.51t0.27,4.05q0.81,2.16 1.08,3.51q0.54,1.89 1.35,3.78zm17.02,-138.77q1.62,3.51 1.62,8.37l0,2.43q-0.81,6.48 -3.78,10.8q-5.67,7.29 -6.75,8.64q-2.7,4.59 -3.24,10.53q-0.54,2.7 -2.16,4.05q-1.89,1.89 -3.78,3.51q-1.62,1.35 -3.11,3.1t-1.76,4.45q-0.54,2.16 1.08,4.05t2.16,4.05q0.54,2.43 -0.27,5.94q-0.81,3.78 -1.35,6.21q-1.35,1.89 -2.16,3.78q-0.54,2.16 -1.35,4.32q-0.54,2.7 0,5.4q0.81,2.97 0,5.67q0,5.13 1.08,9.45q0.54,2.97 0.54,6.21q-0.27,2.43 -0.27,3.51q0,2.7 -1.08,4.59q-1.35,1.62 -2.97,3.51q-1.35,1.89 -2.43,3.78t-1.08,5.13l1.08,7.56q0.27,3.78 0.27,7.29l0,-1.35q0,-0.54 0.27,-0.54l0,7.56q0.27,2.16 0.54,7.83q0.27,1.62 0.27,7.56l0,2.7q-0.27,1.62 0.27,5.13q1.08,4.59 1.35,8.91q0.27,4.59 0.27,9.45l0,6.21q-0.27,2.7 -3.51,4.59q-1.62,-0.27 -3.51,0.81q-0.81,0.27 -1.35,0.27q-1.35,0 -2.43,-1.08q-0.27,-0.27 -0.27,-1.89l0,-2.97l0,-3.24q0.27,-0.54 0.27,-2.16l0,-1.89l0,-1.35l0,-0.81l0,-0.81l0,-0.81l0,-0.27q-0.27,-1.35 1.35,-7.29q1.08,-3.78 0.81,-9.72q0.27,-1.08 0,-2.97q-1.08,-8.64 -1.35,-9.99q-1.08,-3.24 -1.08,-6.48q0,-1.62 0.27,-3.51q0.54,-4.32 1.62,-13.23q0.27,-2.16 0.27,-4.32q-0.27,-5.4 -0.81,-8.37q-0.81,-4.86 -1.35,-16.2q-0.27,-0.54 -0.27,-1.35q1.35,-9.45 3.78,-14.31q3.24,-6.75 3.78,-12.42q0.54,-3.51 0.54,-6.48q0,-3.51 -0.54,-6.48q-1.35,2.7 -2.97,4.86q-1.62,2.43 -2.43,4.59q-1.62,3.24 -1.35,5.4q0.27,3.24 0.81,5.4q0.27,1.62 0.27,2.7q-0.27,4.59 -1.35,7.56q-0.54,2.43 -1.62,4.59q-1.08,2.43 -1.35,4.59q-0.27,-3.24 -1.08,-5.4l-1.89,-5.67q-0.81,-2.16 -1.62,-4.86q-0.27,-2.7 0.81,-5.13q1.08,-3.24 1.35,-4.86q0.27,-1.89 -2.43,-4.32q-1.89,-1.89 -2.97,-3.24q-1.62,-1.89 -2.16,-4.32q-0.54,3.51 -0.54,7.02q0,2.97 0.27,4.86q0.54,7.29 3.24,11.61q2.16,3.24 2.43,4.05q1.62,1.62 2.16,4.05l0,16.74q0,2.97 1.35,6.21q1.08,2.97 1.08,4.59l0,5.4q0,5.94 0.54,11.34q0,2.7 -0.27,5.4q-0.27,2.43 -0.27,5.13q0,3.24 -1.08,7.29q-0.81,3.51 0,7.02q0.54,2.97 1.08,5.67l0,5.94q0,7.02 -1.08,11.88q-0.81,3.24 -0.81,5.67q0.27,3.78 0.81,6.48q-2.16,-0.54 -2.97,-1.89t-1.62,-2.97q-1.08,-0.81 -1.89,-1.35q-1.08,-0.54 -1.89,-1.35q-1.62,-1.89 -1.08,-4.32q0.81,-2.43 1.08,-5.13q0.27,-2.97 0.27,-6.21q0,-2.97 1.08,-6.48q1.08,-4.86 1.08,-10.26q-0.27,-3.78 -0.27,-5.13q0.27,-5.67 0.81,-8.91q1.08,-9.72 1.35,-13.77q0.27,-3.51 0.81,-7.02q0.81,-3.51 -1.35,-5.67q-2.16,-1.89 -4.59,-2.97q-2.43,-1.89 -4.59,-4.32q-2.43,-2.16 -3.24,-3.78q-1.08,-1.62 -0.27,-5.13t1.08,-6.48l0,-7.02q0,-2.97 0.27,-5.94q0.27,-3.51 0.27,-6.48q0.27,-3.24 0,-6.21q-0.27,-2.7 -2.7,-4.86q-1.08,-1.35 -2.16,-1.89q-0.54,-0.54 -1.62,-2.7q-0.54,-1.08 -0.27,-2.97q0.27,-1.62 0.27,-2.97q0,-2.43 0.54,-5.94q0.54,-3.78 -1.62,-5.67q-0.81,-0.27 -2.43,-0.27q-1.89,0 -2.43,-0.27t-2.16,-1.62q-1.35,-0.81 -1.89,-1.62q-2.7,-1.35 -4.32,-4.32q-1.89,-2.97 -3.51,-5.94q-1.35,-1.62 -1.89,-4.05q-0.54,-2.7 0,-5.13q-3.24,-1.35 -3.24,-3.51q-0.54,-1.35 -0.54,-2.7l0,-1.62q0.27,-2.43 1.08,-4.86q1.35,-2.97 1.62,-5.13q0.27,-2.97 1.62,-5.67l2.97,-5.13q0.27,-0.54 0.81,-1.35q0.81,-0.54 1.35,-0.81q1.35,-1.62 1.89,-0.54q2.16,-0.81 2.16,2.16q-0.54,0 -0.81,-0.27q0.27,2.16 0.81,5.4t0.54,4.86l-1.08,3.24q-0.27,1.62 0.14,4.05t1.49,2.97q0.54,0 2.97,2.43q2.97,2.97 5.67,5.4q4.32,4.32 6.48,5.4q2.16,1.35 4.32,4.05q2.16,2.43 3.51,4.86l-0.54,-2.7q-0.27,-1.35 -0.27,-2.7q-0.81,-2.97 -1.35,-5.67q-0.54,-2.97 -0.81,-5.67t-1.08,-4.59l-1.08,-4.32q-0.54,-2.7 -1.08,-4.86q-0.54,-2.43 -2.7,-3.78q-1.08,-1.89 -2.97,-2.97q-1.89,-1.62 -3.24,-2.97q-2.16,-2.16 -3.51,-3.78q-1.89,-1.89 -3.78,-3.51q-3.78,-3.24 -4.59,-7.29q-0.27,-3.51 -0.27,-6.21l0,-2.16q0.27,-3.24 2.43,-6.21q2.16,-3.24 5.13,-4.59q3.24,-1.62 6.75,-1.89q3.51,0 6.48,2.43q-1.89,3.24 -3.24,7.83t-1.89,7.29q0.54,-1.35 0.81,-1.89q0,-0.54 0.54,-1.08q0.81,1.62 1.62,2.16l0.81,0.81l0.81,0.81q1.62,0.81 2.43,0.81q1.62,0.27 1.89,1.35q-0.27,0.81 -0.54,1.89q0,1.08 -0.54,2.43q-1.08,4.05 -1.08,5.94q0,2.43 0.54,2.43q0,-2.97 0.27,-3.78q0.54,-0.27 1.35,-2.7q0.81,-2.16 1.62,-2.97q0.54,-1.35 1.08,-3.24q-0.54,-1.08 0.81,-2.97q-1.35,0 -3.51,-0.54q-1.62,-0.81 -2.16,-2.43q-1.08,0 -1.62,0.27q0,-5.13 2.7,-11.61q0.54,-0.27 1.08,-1.08q1.08,-0.54 1.89,-1.08q1.62,-0.81 3.78,-0.54q2.43,0.54 3.78,0q2.43,0 4.86,-0.81q2.16,-0.81 4.32,-0.81t3.51,0.81q1.35,0.54 4.05,0.27q1.35,-0.81 2.16,-1.62q0.81,-0.54 2.7,-0.27q1.35,0 2.3,0.4t2.3,-0.4q2.43,-0.27 3.51,-0.54l1.08,0q1.08,0 2.97,0.54q2.43,1.89 2.7,4.05q0,2.16 0.27,4.59q0.27,2.16 1.08,3.51q0.81,2.16 0,4.32q0,2.97 -1.62,4.86q-2.16,1.62 -3.24,4.05q-1.62,2.97 -3.24,5.4q-1.08,2.43 -3.51,4.32t-5.4,2.7q-2.97,0.81 -4.86,2.43t-4.59,3.51q-2.43,1.89 -3.78,4.05q-2.43,0.81 -2.7,4.59q-0.54,3.78 -0.54,9.18q0,5.13 0.54,10.26q0.54,4.86 0.54,7.02q0.81,-1.89 1.35,-4.05q0.27,-2.16 0.54,-4.59q0.81,-2.16 2.16,-4.05q1.08,-2.16 2.97,-3.24q1.35,-1.62 2.97,-2.56t3.51,-1.75q1.89,-1.35 3.51,-2.97q1.89,-1.62 4.32,-2.7q2.43,-4.32 4.05,-7.56q2.16,-4.32 2.16,-8.37q0,-1.08 0.81,-3.51q0.27,-2.43 1.62,-4.86q1.08,-2.7 2.57,-4.45t3.11,-1.75q0.54,2.7 -0.27,4.86t-0.54,5.13q0.81,4.05 2.7,7.83l-0.02,-0.01z" id="svg_2"/>
 </g>
</svg>