<?xml version="1.0"?>
<svg width="250" height="220" xmlns="http://www.w3.org/2000/svg" xmlns:svg="http://www.w3.org/2000/svg">
 <g class="layer">
  <title>Layer 1</title>
  <path d="m187.29,1.61l62.25,107.97l-62.25,107.97l-124.5,0l-62.25,-107.97l62.25,-107.97l124.5,0zm-47.27,142.58l-29.96,0l-36.42,62.77l102.54,0l-36.16,-62.77zm22.47,-30.22l-15.24,25.83l36.42,63.02l51.4,-88.85l-72.58,0zm-74.91,0l-72.58,0l50.88,88.6l36.68,-63.02l-14.98,-25.57zm96.09,-97.64l-36.42,62.77l15.24,26.09l72.58,0l-51.4,-88.85zm-81.11,63.02l-36.42,-62.77l-51.14,88.6l72.58,0l14.98,-25.83zm73.36,-67.16l-102.29,0l36.42,62.77l29.7,0l36.16,-62.77z" id="svg_1"/>
 </g>
</svg>